PathFileType	4	(X/Y/Z)	26_1_51_p1_0-826_filt_butterworth.trc
DataRate	CameraRate	NumFrames	NumMarkers	Units	OrigDataRate	OrigDataStartFrame	OrigNumFrames
59.0	59.0	6	27	m	59.0	516	826
Frame#	Time	RHip			RKnee			RAnkle			RBigToe			RSmallToe			RHeel			LHip			LKnee			LAnkle			LBigToe			LSmallToe			LHeel			Neck			Head			Nose			RShoulder			RElbow			RWrist			RThumb			RIndex			RPinky			LShoulder			LElbow			LWrist			LThumb			LIndex			LPinky			
		X1	Y1	Z1	X2	Y2	Z2	X3	Y3	Z3	X4	Y4	Z4	X5	Y5	Z5	X6	Y6	Z6	X7	Y7	Z7	X8	Y8	Z8	X9	Y9	Z9	X10	Y10	Z10	X11	Y11	Z11	X12	Y12	Z12	X13	Y13	Z13	X14	Y14	Z14	X15	Y15	Z15	X16	Y16	Z16	X17	Y17	Z17	X18	Y18	Z18	X19	Y19	Z19	X20	Y20	Z20	X21	Y21	Z21	X22	Y22	Z22	X23	Y23	Z23	X24	Y24	Z24	X25	Y25	Z25	X26	Y26	Z26	X27	Y27	Z27	
516	8.745762711864407	0.31487441600171584	0.7282308711898464	0.9192012695919304	0.27850855070878816	0.9896341401829193	1.290595032185052	0.2539170857706607	1.2414945759289175	1.6411757031947376	0.23866229786622284	1.005335953741182	1.685462533257453	0.27768026717888766	1.0452964880241153	1.6972160268875973	0.24337132348824037	1.3125980268063429	1.6806998341908286	0.08649293852341611	0.7751613690090929	0.9024670631421035	0.10573027349379116	0.9717160552854149	1.2635439998199185	0.12786395332212605	1.2329822577149199	1.6459804091262138	0.11177061206787195	1.0198806092551818	1.6827371426003048	0.0646217185184695	1.0947537269507792	1.6716469749167961	0.1337244596984162	1.317764381822479	1.6876402196796585	0.2271913725435236	0.4948288764667482	0.3511540661330941	0.23476784618747445	0.3860307096069108	0.12932954808795574	0.2251965563063208	0.3817532899566061	0.26354991565326336	0.3961859197044918	0.5823947811655681	0.43721861393044625	0.4220697169002439	0.7160947572483448	0.6645093989638902	0.3543236553561142	0.7947487058829154	0.7570486805413187	0.3369986161973923	0.6744149646139674	0.7548231848872808	0.33515595201114984	0.6709149056262875	0.778247290415574	0.32897161442184714	0.7079851496554402	0.7841723554571123	0.06271491946001861	0.5873168614306893	0.4089226020175887	0.025213856661004962	0.8220607454615885	0.6068945966172132	0.05109839413245074	0.7477896190809092	0.7620071200876314	0.06342964048717228	0.8739908206149015	0.8932015938882085	0.0687922703099608	0.9614220653855823	0.9080437534812864	0.1430353441212141	0.8868448267653424	0.8045599308267855
517	8.76271186440678	0.3150527083128529	0.7290415506687469	0.9201518496858853	0.2785013344193619	0.9896432885283071	1.2906057251992655	0.25389602066706796	1.2414884193935845	1.6412017249453128	0.23865097181673167	1.0053201002555938	1.685335032018988	0.2775520343856556	1.0453340109711622	1.6972542004692084	0.24317937759681219	1.312127670511407	1.6807080967167185	0.08645947965546341	0.775558929576212	0.9028756568616789	0.1057564610284279	0.9718664084016766	1.2635457796701557	0.12815840864466677	1.2325224949327358	1.6449716714714602	0.11118774289504693	1.016035865296589	1.6817476551421495	0.06347185051572657	1.096714293646885	1.6729277393453992	0.13364547440241017	1.3172551647379758	1.6872552047449831	0.22726068610923827	0.49459903316128534	0.3502992922819776	0.23482173242588952	0.3860760005537375	0.12936265859896703	0.22646124813339977	0.38527237262778014	0.2615610253387874	0.3962241764408393	0.582165478007179	0.4363915267481986	0.42144037981800386	0.7121671340605676	0.6645311832520161	0.35414976457288705	0.7873529929302832	0.7584612828166032	0.33699861614998844	0.6744149631559629	0.7548231856186884	0.3314167459670472	0.6717673099923439	0.777868327945024	0.32891168457707365	0.7076970406870012	0.7842456081299674	0.06280343313631076	0.5871525349532732	0.40805695899943767	0.025923293920032425	0.8246709402994666	0.6068087579176306	0.05347545796719072	0.7529688726405088	0.7610695013854581	0.06342964048717228	0.8739908206149015	0.8932015938882085	0.0687922703099608	0.9614220653855823	0.9080437534812864	0.18221751915245693	0.9708094635401816	0.785955048291957
518	8.779661016949152	0.31529708773555903	0.7301386912576133	0.9214712264448441	0.2785036175562128	0.9896661924925066	1.290629460311275	0.25389582648699877	1.241485435277272	1.6412167244226117	0.23876061380097427	1.0056721275121503	1.6869306199606149	0.2774806016486744	1.0453715405999429	1.6973132019864265	0.2431268478853962	1.312118114198206	1.6807798103885785	0.08649194607654695	0.7757833354948056	0.9029536711105275	0.10573935866326035	0.9719572100800825	1.2635589731453605	0.1283522881905927	1.2324766862630447	1.6447748315211546	0.11017352679242882	1.0154288698547065	1.6819084438602139	0.06188932887102131	1.0965891317889793	1.6733458714058405	0.1335613525120973	1.316568068416696	1.6868862771632054	0.2272907440150098	0.4945288562039353	0.34998038953222504	0.23484387489780456	0.38609026345398945	0.1293740760758077	0.22736537555637767	0.38791680520639965	0.2599254890952098	0.3962474407903591	0.5820790616589342	0.4360788819491767	0.420700669460365	0.7076373975905246	0.6659429415624762	0.3530813019749752	0.7607544067121035	0.7638608434865217	0.33699861609631854	0.6744149616379823	0.7548231865935066	0.32845625438519044	0.6727549503271543	0.7790592460105205	0.32873090423583884	0.7052731332978303	0.7856906814808395	0.06283664475255292	0.5868739584270105	0.40773074930650033	0.026485568149903695	0.826821606315153	0.6066446194152131	0.05474818716288095	0.756010659943106	0.760604263053605	0.06342964048717228	0.8739908206149015	0.8932015938882085	0.0687922703099608	0.9614220653855823	0.9080437534812864	0.21167078810127551	1.0338816135016053	0.771935806568381
519	8.796610169491526	0.31549174740103003	0.7309925766905462	0.9224916568762567	0.278514550104616	0.9896828508102106	1.290652109041707	0.2539074000695646	1.2414881345034707	1.6412231622429172	0.23908566512021456	1.0067208532603251	1.6901994089468206	0.2775025819510275	1.0454177115797656	1.6973653209784796	0.24356879069801785	1.314042463858004	1.681084311463719	0.08655315028311161	0.7758724939300343	0.9029016194525162	0.10570676180750613	0.9719739185125018	1.2635689643636379	0.12838499683164314	1.232942988975467	1.6455162700183075	0.10907679177347057	1.017606296993336	1.682824240441211	0.06067172578986174	1.0960930894707666	1.6737549155709086	0.13345152088456733	1.3159728895973108	1.6866615675940562	0.22729266250956828	0.4945414188351318	0.34999542385392723	0.23484160293980488	0.38607394985098453	0.12936639626569274	0.227742934662172	0.3889850508854646	0.2595527924203409	0.3962613225485525	0.5820944338430339	0.43609537209851507	0.4202290770635439	0.7053648139596957	0.6674403759093332	0.3517208561211878	0.7328648039941734	0.7703484458066806	0.33699861616428994	0.6744149634210878	0.7548231855064437	0.3271048011675517	0.6719745535699452	0.781971456175086	0.3283641210908121	0.6996373451410177	0.7898883497069871	0.06283139780865746	0.5865268619692056	0.40776475413179936	0.02664732139621492	0.8275056575122216	0.606528692861881	0.05518485497571381	0.7572480792869247	0.760617664215649	0.06342964048717228	0.8739908206149015	0.8932015938882085	0.0687922703099608	0.9614220653855823	0.9080437534812864	0.2197646064639429	1.0511923371740468	0.7680398325302601
520	8.813559322033898	0.3155777116485315	0.7313622654181516	0.9228966456960142	0.2785297394698235	0.9896886309024949	1.2906492181979323	0.253921370375595	1.2414965525865633	1.6412261187764936	0.23956342005445086	1.0082572387360944	1.693549491469589	0.27756987871623456	1.0454466956821495	1.6973914863976287	0.2447622244572017	1.319011667312916	1.6817699499189285	0.0865850720792419	0.7758107081117203	0.9028584928315131	0.10567839639401419	0.9719431190487791	1.2635690426384047	0.12814534653964965	1.233612741915235	1.6467607676024973	0.1077930854804266	1.0204909267586726	1.6836429791141196	0.06017252477750022	1.095848118344717	1.6747047396231602	0.13331219554697815	1.3156094923685604	1.6865790006681822	0.22728558022758427	0.4945572815980235	0.3500887523740769	0.2348331734947336	0.3860345707812323	0.12935275300982121	0.22813600298056488	0.38908308971286265	0.26022904749058356	0.3962785021869436	0.5821309243248057	0.43619681852715897	0.41992902839110646	0.7055896011068922	0.667585245224698	0.350782496688975	0.7180230319710798	0.7751279215875715	0.33699861656362073	0.6744149743881345	0.7548231786114762	0.32674438176829884	0.6670163683186776	0.7860574056858152	0.3279153829376593	0.6927488079103151	0.7961231114418418	0.06281247500577777	0.5862496597392987	0.4078739599084546	0.026375624605081104	0.8265433369531225	0.6065614953841276	0.05505302775993568	0.7570686768585649	0.7609037156930922	0.06342964048717228	0.8739908206149015	0.8932015938882085	0.0687922703099608	0.9614220653855823	0.9080437534812864	0.21029683217872758	1.030889538908112	0.7724731019705916
521	8.830508474576272	0.31558408436418417	0.7314187596163166	0.9228954136439163	0.2785422933823114	0.9896916376446627	1.2906101063768025	0.25394011923572457	1.2415074130887622	1.6412218496130775	0.23995876245692704	1.009504816548021	1.6954315601534184	0.27762199611388394	1.0454366995784556	1.6973970038878667	0.24636016192469556	1.3256296242587675	1.682667641995052	0.08657834117285851	0.7756623938317242	0.9028515564820696	0.10565423046176345	0.9718983156446842	1.2635613665057288	0.1276855827226485	1.2340053331631768	1.6477740560926155	0.10626909246552868	1.023627681256162	1.6842036290785438	0.060161367084145226	1.0957508405752312	1.6757171449869759	0.13319769285337585	1.3153733902514213	1.6865533862926663	0.22728045674658945	0.4945549280173903	0.350147199262799	0.23482939931678537	0.3859935070339312	0.12934517501610773	0.22909281000226767	0.3890026544088203	0.26103227422359426	0.3962966147642294	0.5821539645082354	0.4362594250773463	0.41967415324708734	0.7070528402013582	0.6662371437562261	0.3504817836058688	0.7154833254825392	0.7770213821252191	0.3369986172883383	0.6744149948112063	0.7548231658171669	0.3266255045800102	0.6591373076144196	0.7900746819899545	0.32758089434270254	0.6878293029999512	0.8007053932117791	0.06279691791859209	0.5861006737471167	0.40789889211470626	0.02579900141796166	0.8244368664804762	0.606750818593523	0.05408892099884484	0.754810083751766	0.7611342179455763	0.06342964048717228	0.8739908206149015	0.8932015938882085	0.0687922703099608	0.9614220653855823	0.9080437534812864	0.19385107558067066	0.9956427164976078	0.78021582185295
